<?xml version="1.0" encoding="utf-8"?>
<!-- Generator: Adobe Illustrator 26.5.0, SVG Export Plug-In . SVG Version: 6.00 Build 0)  -->
<svg version="1.1" id="Layer_1" xmlns="http://www.w3.org/2000/svg" xmlns:xlink="http://www.w3.org/1999/xlink" x="0px" y="0px"
	 viewBox="0 0 512 512" style="enable-background:new 0 0 512 512;" xml:space="preserve">
<style type="text/css">
	.st0{fill:#000099;}
</style>
<path id="path3131" class="st0" d="M268.73,230.54l-23.11,66.28l-10.1-66.28h-26.57l-8.99,28.37l-8.99-28.37h-26.71l-10.66,70.71
	h26.57l3.87-26.85l7.47,26.85h17.16l7.47-26.85l3.87,26.85h54.94l8.72-33.35l8.72,33.35h30.58l-24.63-70.71H268.73 M113.47,227.77
	c-21.03,0-38.05,17.02-38.05,38.05c0,21.03,17.02,38.05,38.05,38.05s38.05-17.02,38.05-38.05
	C151.52,244.93,134.5,227.77,113.47,227.77z M113.47,276.62c-5.95,0-10.79-4.84-10.79-10.79s4.84-10.79,10.79-10.79
	c5.95,0,10.79,4.84,10.79,10.79C124.26,271.91,119.42,276.62,113.47,276.62 M482.8,230.54v44.42l0,0c0,2.08-1.8,3.74-3.87,3.74
	s-3.87-1.66-3.87-3.74l0,0v-44.42h-29.2v44.28c0,19.37,13.15,29.2,32.93,29.2c19.93,0,33.21-9.41,33.21-29.2v-44.28H482.8
	 M78.6,230.54H45.11l-15.64,34.46v-34.46H0v70.71h29.47v-35.84l16.47,35.84h33.76l-17.85-36.12L78.6,230.54 M427.17,259.6
	c-9.55-4.98-18.54-3.74-17.85-8.58c0.83-5.4,12.18-1.25,20.9,3.74l8.03-18.96c-10.66-6.09-18.27-7.47-25.6-7.89
	c-9.13-0.42-18.68,3.04-23.66,7.47c-8.3,7.2-10.24,18.68-5.26,27.95c6.09,11.35,19.51,11.35,24.08,13.56
	c2.91,1.38,2.63,4.98-0.55,5.95c-7.61,2.35-22.97-7.33-22.97-7.33l-8.16,18.82c10.52,5.95,19.1,9.41,31.27,9.41
	C443.36,303.88,445.44,268.32,427.17,259.6 M388.15,207.98h-27.4v22.56h-46.5v26.43h17.16v44.28h29.34v-65.18h27.4V207.98"/>
</svg>
